<svg width="92" height="91" viewBox="0 0 92 91" fill="none" xmlns="http://www.w3.org/2000/svg">
<g clip-path="url(#clip0)">
<path fill-rule="evenodd" clip-rule="evenodd" d="M65.0495 49.0976C51.608 49.0976 40.673 38.1648 40.673 24.7255C40.673 12.9107 49.1136 2.8272 60.7431 0.749226C61.4528 0.621669 62.1756 0.853888 62.6804 1.3652C63.1841 1.87761 63.4043 2.60588 63.2669 3.31126C63.0151 4.60318 62.8875 5.89619 62.8875 7.15541C62.8875 18.1885 71.8667 27.1655 82.903 27.1655C84.0521 27.1655 85.2078 27.0575 86.4397 26.8362C87.1517 26.7119 87.8723 26.9398 88.3771 27.4511C88.8829 27.9635 89.1021 28.6929 88.9647 29.3983C86.7483 40.8129 76.6887 49.0976 65.0495 49.0976Z" fill="#78909C"/>
<path fill-rule="evenodd" clip-rule="evenodd" d="M65.6299 89.5554H32.8174H30.0049V89.4358C13.1997 88.0011 0.00494385 73.8279 0.00494385 56.5554C0.00494385 38.33 14.6956 23.5554 32.8174 23.5554C45.2848 23.5554 56.1281 30.5483 61.6811 40.8468C62.9664 40.6363 64.2855 40.5268 65.6299 40.5268C79.0919 40.5268 90.0049 51.5022 90.0049 65.0411C90.0049 77.2974 81.0615 87.453 69.3799 89.267V89.5554H65.6299Z" fill="#E4E9F6"/>
<path fill-rule="evenodd" clip-rule="evenodd" d="M69.1299 66.6595H45.0674H43.0049V66.5726C30.6811 65.5292 21.0049 55.2214 21.0049 42.6595C21.0049 29.4047 31.7781 18.6595 45.0674 18.6595C54.2102 18.6595 62.1619 23.7453 66.2341 31.2352C67.1767 31.082 68.144 31.0024 69.1299 31.0024C79.002 31.0024 87.0049 38.9845 87.0049 48.831C87.0049 57.7447 80.4464 65.1305 71.8799 66.4499V66.6595H69.1299Z" fill="#E5E9F7" fill-opacity="0.6"/>
</g>
<defs>
<clipPath id="clip0">
<rect width="91" height="90" fill="white" transform="translate(0.00494385 0.180359)"/>
</clipPath>
</defs>
</svg>
