<svg width="92" height="82" viewBox="0 0 92 82" fill="none" xmlns="http://www.w3.org/2000/svg">
<g clip-path="url(#clip0)">
<g clip-path="url(#clip1)">
<circle cx="63.0049" cy="26.6804" r="26.5" fill="#F7DE6D"/>
<circle cx="63.005" cy="26.6804" r="17.0778" fill="#FDB632"/>
</g>
<path fill-rule="evenodd" clip-rule="evenodd" d="M66.1299 80.5554H33.3174H30.5049V80.4358C13.6997 79.0011 0.504944 64.8279 0.504944 47.5554C0.504944 29.33 15.1956 14.5554 33.3174 14.5554C45.7848 14.5554 56.6281 21.5483 62.1811 31.8468C63.4664 31.6363 64.7855 31.5268 66.1299 31.5268C79.5919 31.5268 90.5049 42.5022 90.5049 56.0411C90.5049 68.2974 81.5615 78.453 69.8799 80.267V80.5554H66.1299Z" fill="#E5E9F7"/>
<path fill-rule="evenodd" clip-rule="evenodd" d="M69.6299 57.6595H45.5674H43.5049V57.5726C31.1811 56.5292 21.5049 46.2214 21.5049 33.6595C21.5049 20.4047 32.2781 9.65955 45.5674 9.65955C54.7102 9.65955 62.6619 14.7453 66.7341 22.2352C67.6767 22.082 68.644 22.0024 69.6299 22.0024C79.502 22.0024 87.5049 29.9845 87.5049 39.831C87.5049 48.7447 80.9464 56.1305 72.3799 57.4499V57.6595H69.6299Z" fill="#E5E9F7" fill-opacity="0.6"/>
</g>
<defs>
<clipPath id="clip0">
<rect width="91" height="81" fill="white" transform="translate(0.504944 0.180359)"/>
</clipPath>
<clipPath id="clip1">
<rect width="53" height="53" fill="white" transform="translate(36.5049 0.180359)"/>
</clipPath>
</defs>
</svg>
