<svg width="92" height="73" viewBox="0 0 92 73" fill="none" xmlns="http://www.w3.org/2000/svg">
<g clip-path="url(#clip0)">
<path fill-rule="evenodd" clip-rule="evenodd" d="M69.6299 48.6595H45.5674H43.5049V48.5726C31.1811 47.5292 21.5049 37.2214 21.5049 24.6595C21.5049 11.4047 32.2781 0.659546 45.5674 0.659546C54.7102 0.659546 62.6619 5.74531 66.7341 13.2352C67.6767 13.082 68.644 13.0024 69.6299 13.0024C79.502 13.0024 87.5049 20.9845 87.5049 30.831C87.5049 39.7447 80.9464 47.1305 72.3799 48.4499V48.6595H69.6299Z" fill="#E5E9F7" fill-opacity="0.6"/>
<path fill-rule="evenodd" clip-rule="evenodd" d="M66.1299 71.5554H33.3174H30.5049V71.4358C13.6997 70.0011 0.504944 55.8279 0.504944 38.5554C0.504944 20.33 15.1956 5.55536 33.3174 5.55536C45.7848 5.55536 56.6281 12.5483 62.1811 22.8468C63.4664 22.6363 64.7855 22.5268 66.1299 22.5268C79.5919 22.5268 90.5049 33.5022 90.5049 47.0411C90.5049 59.2974 81.5615 69.453 69.8799 71.267V71.5554H66.1299Z" fill="#E4E9F6"/>
</g>
<defs>
<clipPath id="clip0">
<rect width="91" height="72" fill="white" transform="translate(0.504944 0.180359)"/>
</clipPath>
</defs>
</svg>
