<svg width="91" height="91" viewBox="0 0 91 91" fill="none" xmlns="http://www.w3.org/2000/svg">
<g clip-path="url(#clip0)">
<path d="M28.6558 90.1804C13.5015 90.1804 1.17303 77.8543 1.17303 62.7025C1.17303 49.3821 10.6892 38.0136 23.8006 35.6708C24.6008 35.527 25.4158 35.7888 25.9849 36.3653C26.5527 36.943 26.801 37.764 26.6462 38.5593C26.3622 40.0159 26.2184 41.4736 26.2184 42.8933C26.2184 55.3324 36.3418 65.4533 48.7846 65.4533C50.0801 65.4533 51.383 65.3316 52.772 65.0821C53.5746 64.942 54.3871 65.1989 54.9562 65.7754C55.5265 66.3531 55.7736 67.1754 55.6187 67.9707C53.1198 80.84 41.7783 90.1804 28.6558 90.1804Z" fill="white"/>
<path fill-rule="evenodd" clip-rule="evenodd" d="M47.9419 28.4234C47.936 27.3833 47.4755 21.7711 47.2736 19.3546C47.2361 18.0889 46.2064 17.5396 46.2064 17.5396L38.7694 12.1464C37.972 11.4484 38.2138 10.4025 39.3686 10.2638C40.6282 10.1795 46.1118 9.7864 48.5294 9.61241C49.8399 9.53136 50.4461 8.48367 50.4461 8.48367L55.4636 1.59456C56.4499 0.177084 57.6844 0.885654 57.6627 2.17235C57.7794 3.30022 58.1413 8.3483 58.3096 10.7481C58.377 11.9376 59.3335 12.7107 59.3335 12.7107L66.4537 17.9446C67.3607 18.5674 67.2696 19.7824 65.7679 19.9734C64.4922 20.08 59.4531 20.4677 57.1085 20.6474C55.9373 20.6892 55.2946 21.5587 55.2946 21.5587L49.8712 28.9387C49.1637 29.8331 48.0373 29.6147 47.9419 28.4234Z" fill="#F7DE6D"/>
<path fill-rule="evenodd" clip-rule="evenodd" d="M74.5741 62.0743C74.5696 61.2611 74.2095 56.873 74.0516 54.9836C74.0223 53.9939 73.2172 53.5645 73.2172 53.5645L67.4023 49.3476C66.7788 48.8018 66.9679 47.9841 67.8708 47.8756C68.8556 47.8098 73.1432 47.5024 75.0335 47.3663C76.0581 47.303 76.5322 46.4838 76.5322 46.4838L80.4553 41.0973C81.2264 39.989 82.1916 40.543 82.1747 41.5491C82.2659 42.4309 82.5488 46.3779 82.6805 48.2543C82.7332 49.1844 83.4811 49.7888 83.4811 49.7888L89.0482 53.8811C89.7574 54.3681 89.6861 55.318 88.512 55.4674C87.5145 55.5507 83.5746 55.8539 81.7413 55.9944C80.8257 56.0271 80.3231 56.707 80.3231 56.707L76.0827 62.4772C75.5294 63.1766 74.6488 63.0058 74.5741 62.0743Z" fill="#FFFE94"/>
</g>
<defs>
<clipPath id="clip0">
<rect width="90" height="90" fill="white" transform="translate(0.504944 0.180359)"/>
</clipPath>
</defs>
</svg>
