<svg width="92" height="91" viewBox="0 0 92 91" fill="none" xmlns="http://www.w3.org/2000/svg">
<g clip-path="url(#clip0)">
<path fill-rule="evenodd" clip-rule="evenodd" d="M69.1299 48.6595H45.0674H43.0049V48.5726C30.6811 47.5292 21.0049 37.2214 21.0049 24.6595C21.0049 11.4047 31.7781 0.659546 45.0674 0.659546C54.2102 0.659546 62.1619 5.74531 66.2341 13.2352C67.1767 13.082 68.144 13.0024 69.1299 13.0024C79.002 13.0024 87.0049 20.9845 87.0049 30.831C87.0049 39.7447 80.4464 47.1305 71.8799 48.4499V48.6595H69.1299Z" fill="#E5E9F7" fill-opacity="0.6"/>
<path fill-rule="evenodd" clip-rule="evenodd" d="M65.6299 71.1804H32.8174H30.0049V71.0608C13.1997 69.6261 0.00494385 55.4529 0.00494385 38.1804C0.00494385 19.955 14.6956 5.18036 32.8174 5.18036C45.2848 5.18036 56.1281 12.1733 61.6811 22.4718C62.9664 22.2613 64.2855 22.1518 65.6299 22.1518C79.0919 22.1518 90.0049 33.1272 90.0049 46.6661C90.0049 58.9224 81.0615 69.078 69.3799 70.892V71.1804H65.6299Z" fill="#E4E9F6"/>
<path fill-rule="evenodd" clip-rule="evenodd" d="M62.1165 73.1246C62.1165 82.5444 54.48 90.1804 45.0607 90.1804C35.6409 90.1804 28.0049 82.5444 28.0049 73.1246C28.0049 58.4862 45.0607 43.1804 45.0607 43.1804C45.0607 43.1804 62.1165 58.4862 62.1165 73.1246Z" fill="#1DADEA"/>
</g>
<defs>
<clipPath id="clip0">
<rect width="91" height="90" fill="white" transform="translate(0.00494385 0.180359)"/>
</clipPath>
</defs>
</svg>
