<svg width="92" height="91" viewBox="0 0 92 91" fill="none" xmlns="http://www.w3.org/2000/svg">
<g clip-path="url(#clip0)">
<path fill-rule="evenodd" clip-rule="evenodd" d="M69.6299 48.6595H45.5674H43.5049V48.5726C31.1811 47.5292 21.5049 37.2214 21.5049 24.6595C21.5049 11.4047 32.2781 0.659546 45.5674 0.659546C54.7102 0.659546 62.6619 5.74531 66.7341 13.2352C67.6767 13.082 68.644 13.0024 69.6299 13.0024C79.502 13.0024 87.5049 20.9845 87.5049 30.831C87.5049 39.7447 80.9464 47.1305 72.3799 48.4499V48.6595H69.6299Z" fill="#E5E9F7" fill-opacity="0.6"/>
<path fill-rule="evenodd" clip-rule="evenodd" d="M66.5049 71.1804H33.5049H30.6764V71.0608C13.7751 69.6261 0.504944 55.4529 0.504944 38.1804C0.504944 19.955 15.2795 5.18036 33.5049 5.18036C46.0435 5.18036 56.9488 12.1733 62.5335 22.4718C63.8262 22.2613 65.1528 22.1518 66.5049 22.1518C80.0438 22.1518 91.0192 33.1272 91.0192 46.6661C91.0192 58.9224 82.0247 69.078 70.2764 70.892V71.1804H66.5049Z" fill="#B5C2C8"/>
<path fill-rule="evenodd" clip-rule="evenodd" d="M63.2969 61.2163C62.3078 59.5271 60.1401 58.9582 58.4474 59.9454L50.2266 64.7506V55.2253C50.2266 53.2685 48.6385 51.6804 46.6816 51.6804C44.7248 51.6804 43.1367 53.2685 43.1367 55.2253V64.7524L34.9124 59.9454C33.2197 58.9546 31.0502 59.5271 30.0629 61.2163C29.0738 62.9072 29.6446 65.0767 31.3338 66.0658L39.6555 70.9312L31.3355 75.7949C29.6446 76.784 29.0756 78.9535 30.0647 80.6444C30.724 81.7717 31.9098 82.3992 33.1293 82.3992C33.7372 82.3992 34.3523 82.2432 34.9142 81.9153L43.1367 77.1083V86.6354C43.1367 88.5922 44.7248 90.1804 46.6816 90.1804C48.6385 90.1804 50.2266 88.5922 50.2266 86.6354V77.1101L58.4474 81.9153C59.0092 82.245 59.6261 82.3992 60.2322 82.3992C61.4517 82.3992 62.6357 81.7717 63.2969 80.6444C64.2859 78.9535 63.7152 76.7822 62.026 75.7949L53.7042 70.9295L62.026 66.064C63.7169 65.0767 64.2859 62.9072 63.2969 61.2163Z" fill="white"/>
</g>
<defs>
<clipPath id="clip0">
<rect width="91" height="90" fill="white" transform="translate(0.504944 0.180359)"/>
</clipPath>
</defs>
</svg>
