<svg width="92" height="91" viewBox="0 0 92 91" fill="none" xmlns="http://www.w3.org/2000/svg">
<g clip-path="url(#clip0)">
<path fill-rule="evenodd" clip-rule="evenodd" d="M69.1299 48.6595H45.0674H43.0049V48.5726C30.6811 47.5292 21.0049 37.2214 21.0049 24.6595C21.0049 11.4047 31.7781 0.659546 45.0674 0.659546C54.2102 0.659546 62.1619 5.74531 66.2341 13.2352C67.1767 13.082 68.144 13.0024 69.1299 13.0024C79.002 13.0024 87.0049 20.9845 87.0049 30.831C87.0049 39.7447 80.4464 47.1305 71.8799 48.4499V48.6595H69.1299Z" fill="#E5E9F7" fill-opacity="0.6"/>
<path fill-rule="evenodd" clip-rule="evenodd" d="M65.6299 71.1804H32.8174H30.0049V71.0615C13.1997 69.6349 0.00494385 55.5423 0.00494385 38.3679C0.00494385 20.246 14.6956 5.55536 32.8174 5.55536C45.2848 5.55536 56.1281 12.5085 61.6811 22.7486C62.9664 22.5392 64.2855 22.4304 65.6299 22.4304C79.0919 22.4304 90.0049 33.3434 90.0049 46.8054C90.0049 58.9921 81.0615 69.0899 69.3799 70.8937V71.1804H65.6299Z" fill="#37474F"/>
<path fill-rule="evenodd" clip-rule="evenodd" d="M33.2034 71.7246L45.0169 71.3121L44.0543 47.7472L65.1187 71.4381L53.3051 71.8506L54.4052 89.3534L33.2034 71.7246Z" fill="#F7DE6D"/>
</g>
<defs>
<clipPath id="clip0">
<rect width="91" height="90" fill="white" transform="translate(0.00494385 0.180359)"/>
</clipPath>
</defs>
</svg>
